# xmcd
#
# Track frame offsets:
#	180
#	15800
#	29991
#	53583
#	69669
#	85836
#	100797
#	116371
#	134207
#	150300
#	164769
#	178931
#
# Disc length: 2600 seconds
#
# Revision: 2
# Processed by: cddbd v1.5.1PL0 Copyright (c) Steve Scherf et al.
# Submitted via: audiograbber 1.80
#
DISCID=9d0a260c
DTITLE=Country techno - Vol. 1
DYEAR=1900
DGENRE=
TTITLE0=Whisky in the jar - PUB
TTITLE1=Make me president - Fog
TTITLE2=Everybody gonfi - gon
TTITLE3=Susanna - Fortnox
TTITLE4=Texas cowboys - The grips
TTITLE5=The cowboys - Two sheriffs
TTITLE6=Get up - Two cowboys
TTITLE7=Swamp thing - The grips
TTITLE8=Old pop in an oak - Westernman
TTITLE9=Susanna - Fortnox
TTITLE10=Cotton eye joe - Westernman
TTITLE11=Rollercoaster - The grips
EXTD=
EXTT0=
EXTT1=
EXTT2=
EXTT3=
EXTT4=
EXTT5=
EXTT6=
EXTT7=
EXTT8=
EXTT9=
EXTT10=
EXTT11=
PLAYORDER=
